<?xml version="1.0" encoding="UTF-8"?>
<svg id="Layer_2" data-name="Layer 2" xmlns="http://www.w3.org/2000/svg" viewBox="0 0 144.3 30">
  <defs>
    <style>
      .cls-1 {
        fill: #fff;
      }
    </style>
  </defs>
  <g id="Layer_1-2" data-name="Layer 1">
    <g>
      <path class="cls-1" d="M10.04.11c.26-.14.57-.15.84-.01,2.3,1.18,4.13,3.05,5.26,5.31h0s4.22,4.2,4.22,4.2l.22.21c2.21,2.23,3.42,5.17,3.42,8.3,0,6.55-5.38,11.88-12,11.88-5.47,0-10.25-3.67-11.61-8.92-.26-1-.39-1.99-.39-2.96,0-1.9.45-3.72,1.33-5.42.87-1.67,2.15-3.14,3.7-4.23,0,0,.02-.01.03-.02.06-.04.12-.09.19-.13.03-.02.06-.05.1-.07,2.46-1.75,4.01-4.45,4.25-7.43.02-.29.19-.56.45-.7ZM11.16,4.5c-.2-.1-.44-.1-.63,0-.2.11-.32.31-.34.53-.18,2.24-1.35,4.28-3.21,5.6-.02.02-.05.04-.07.05-.05.04-.1.07-.14.1,0,0-.01,0-.02.01-1.17.83-2.14,1.93-2.79,3.19-.67,1.28-1.01,2.66-1.01,4.09,0,.73.1,1.48.29,2.23,1.03,3.96,4.63,6.73,8.77,6.73,5,0,9.06-4.02,9.06-8.96,0-2.28-.86-4.43-2.42-6.09l-.32-.33-3.19-3.16h0c-.85-1.71-2.23-3.12-3.97-4.01ZM10.92,8.42c.14-.08.32-.08.46,0,1.27.64,2.27,1.65,2.89,2.87h0s2.33,2.27,2.33,2.27l.24.23c1.14,1.19,1.77,2.73,1.77,4.37,0,3.54-2.97,6.43-6.61,6.43-3.02,0-5.65-1.98-6.4-4.83-.14-.54-.21-1.08-.21-1.6,0-1.03.25-2.01.73-2.93.48-.9,1.18-1.7,2.04-2.29,0,0,0,0,.01-.01.03-.02.07-.05.1-.07.02-.01.04-.03.05-.04,1.36-.94,2.21-2.41,2.34-4.02.01-.16.11-.3.25-.38Z"/>
      <path class="cls-1" d="M36,24.01V7.21h2.4v14.71h9.1v2.09h-11.5Z"/>
      <path class="cls-1" d="M49.91,24.01v-12.72h2.3v12.72h-2.3ZM51.07,8.84c-.45,0-.82-.14-1.13-.43-.29-.29-.43-.64-.43-1.06s.14-.79.43-1.08c.3-.29.68-.43,1.13-.43s.82.14,1.1.43c.3.27.46.62.46,1.03s-.14.8-.43,1.1c-.29.29-.66.43-1.13.43Z"/>
      <path class="cls-1" d="M56.95,24.01v-13.85c0-1.25.36-2.24,1.08-2.98.74-.75,1.78-1.13,3.12-1.13.5,0,.97.06,1.42.19.46.11.86.3,1.18.55l-.7,1.75c-.24-.19-.51-.34-.82-.43-.3-.11-.62-.17-.96-.17-.67,0-1.18.19-1.54.58-.35.37-.53.92-.53,1.66v1.7l.05,1.06v11.06h-2.3ZM54.79,13.19v-1.9h8.11v1.9h-8.11Z"/>
      <path class="cls-1" d="M70.55,24.16c-1.36,0-2.56-.28-3.6-.84-1.02-.56-1.82-1.33-2.4-2.3-.56-.98-.84-2.1-.84-3.36s.27-2.38.82-3.36c.56-.98,1.32-1.74,2.28-2.28.98-.56,2.07-.84,3.29-.84s2.32.27,3.26.82c.94.54,1.68,1.31,2.21,2.3.54.98.82,2.12.82,3.43,0,.1,0,.21-.02.34,0,.13,0,.25-.02.36h-10.82v-1.66h9.62l-.94.58c.02-.82-.15-1.54-.5-2.18s-.84-1.14-1.46-1.49c-.61-.37-1.32-.55-2.14-.55s-1.51.18-2.14.55c-.62.35-1.11.86-1.46,1.51-.35.64-.53,1.38-.53,2.21v.38c0,.85.19,1.61.58,2.28.4.66.95,1.17,1.66,1.54.7.37,1.51.55,2.42.55.75,0,1.43-.13,2.04-.38.62-.26,1.17-.64,1.63-1.15l1.27,1.49c-.58.67-1.3,1.18-2.16,1.54-.85.35-1.8.53-2.86.53Z"/>
      <path class="cls-1" d="M86.37,24.01V7.21h7.08c1.79,0,3.37.35,4.73,1.06,1.38.7,2.44,1.69,3.19,2.95.77,1.26,1.15,2.73,1.15,4.39s-.38,3.13-1.15,4.39c-.75,1.26-1.82,2.25-3.19,2.95-1.36.7-2.94,1.06-4.73,1.06h-7.08ZM88.77,21.92h4.54c1.39,0,2.59-.26,3.6-.79,1.02-.53,1.82-1.26,2.38-2.21.56-.96.84-2.06.84-3.31s-.28-2.37-.84-3.31c-.56-.94-1.35-1.68-2.38-2.21-1.01-.53-2.21-.79-3.6-.79h-4.54v12.62Z"/>
      <path class="cls-1" d="M113.75,24.01v-2.69l-.12-.5v-4.58c0-.98-.29-1.73-.86-2.26-.56-.54-1.41-.82-2.54-.82-.75,0-1.49.13-2.21.38-.72.24-1.33.57-1.82.98l-.96-1.73c.66-.53,1.44-.93,2.35-1.2.93-.29,1.9-.43,2.9-.43,1.74,0,3.09.42,4.03,1.27s1.42,2.14,1.42,3.89v7.68h-2.18ZM109.58,24.16c-.94,0-1.78-.16-2.5-.48-.7-.32-1.25-.76-1.63-1.32-.38-.58-.58-1.22-.58-1.94s.16-1.31.48-1.87c.34-.56.87-1.01,1.61-1.34.75-.34,1.76-.5,3.02-.5h4.03v1.66h-3.94c-1.15,0-1.93.19-2.33.58-.4.38-.6.85-.6,1.39,0,.62.25,1.13.74,1.51.5.37,1.18.55,2.06.55s1.62-.19,2.26-.58c.66-.38,1.13-.94,1.42-1.68l.46,1.58c-.3.75-.84,1.35-1.61,1.8-.77.43-1.74.65-2.9.65Z"/>
      <path class="cls-1" d="M123.85,24.16c-1.06,0-2.06-.14-3.02-.43-.94-.29-1.69-.64-2.23-1.06l.96-1.82c.54.37,1.22.68,2.02.94.8.26,1.62.38,2.45.38,1.07,0,1.84-.15,2.3-.46.48-.3.72-.73.72-1.27,0-.4-.14-.71-.43-.94-.29-.22-.67-.39-1.15-.5-.46-.11-.98-.21-1.56-.29-.58-.1-1.15-.21-1.73-.34-.58-.14-1.1-.34-1.58-.58-.48-.26-.86-.6-1.15-1.03-.29-.45-.43-1.04-.43-1.78s.22-1.44.65-2.02c.43-.58,1.04-1.02,1.82-1.32.8-.32,1.74-.48,2.83-.48.83,0,1.67.1,2.52.31.86.19,1.57.47,2.11.84l-.98,1.82c-.58-.38-1.18-.65-1.8-.79s-1.25-.22-1.87-.22c-1.01,0-1.76.17-2.26.5-.5.32-.74.74-.74,1.25,0,.43.14.77.43,1.01.3.22.69.4,1.15.53.48.13,1.01.24,1.58.34.58.08,1.15.19,1.73.34.58.13,1.1.31,1.56.55.48.24.86.58,1.15,1.01.3.43.46,1.01.46,1.73,0,.77-.22,1.43-.67,1.99-.45.56-1.08,1-1.9,1.32-.82.3-1.79.46-2.93.46Z"/>
      <path class="cls-1" d="M139.02,11.17c1.04,0,1.95.2,2.74.6.8.4,1.42,1.01,1.87,1.82s.67,1.85.67,3.1v7.32h-2.3v-7.06c0-1.23-.3-2.16-.91-2.78-.59-.62-1.43-.94-2.52-.94-.82,0-1.53.16-2.14.48-.61.32-1.08.79-1.42,1.42-.32.62-.48,1.4-.48,2.33v6.55h-2.3V6.2h2.3v8.52l-.46-.91c.42-.83,1.06-1.48,1.92-1.94.86-.46,1.87-.7,3.02-.7Z"/>
    </g>
  </g>
</svg>